<svg width="60" height="60" viewBox="0 0 60 60" fill="none" xmlns="http://www.w3.org/2000/svg">
<path d="M22.5 24.375C22.5 22.3043 20.8207 20.625 18.75 20.625H16.875C12.7324 20.625 9.375 23.9824 9.375 28.125V33.75C9.375 37.8926 12.7324 41.25 16.875 41.25H18.75C20.8207 41.25 22.5 39.5707 22.5 37.5V24.375ZM43.125 41.25C47.2676 41.25 50.625 37.8926 50.625 33.75V28.125C50.625 23.9824 47.2676 20.625 43.125 20.625H41.25C39.1793 20.625 37.5 22.3043 37.5 24.375V37.5C37.5 39.5707 39.1793 41.25 41.25 41.25H43.125ZM30 0C13.2633 0 0.536719 13.9254 0 30V31.875C0 32.9109 0.839062 33.75 1.875 33.75H3.75C4.78594 33.75 5.625 32.9109 5.625 31.875V30C5.625 16.5598 16.5598 5.625 30 5.625C43.4402 5.625 54.375 16.5598 54.375 30H54.3609C54.3703 30.2848 54.375 49.4203 54.375 49.4203C54.375 52.1566 52.1566 54.375 49.4203 54.375H37.5C37.5 51.2684 34.9816 48.75 31.875 48.75H28.125C25.0184 48.75 22.5 51.2684 22.5 54.375C22.5 57.4816 25.0184 60 28.125 60H49.4203C55.2633 60 60 55.2633 60 49.4203V30C59.4633 13.9254 46.7367 0 30 0Z" fill="#54ED39"/>
</svg>
