<svg width="80" height="32" viewBox="0 0 80 32" fill="none" xmlns="http://www.w3.org/2000/svg">
<path d="M12.2727 0.745594C3.66664 2.5786 -1.7273 12.0854 1.06058 20.5359C4.66664 31.4097 17.4242 34.8271 25.4545 27.0602C26.4545 26.097 27.2727 25.165 27.2727 25.0097C27.2727 24.8233 26.4545 23.8602 25.4545 22.866L23.6363 21.033L22.303 22.3068C20.0606 24.4504 18.0909 25.2893 15.4545 25.2893C13.6363 25.2893 12.8485 25.1339 11.5151 24.5126C4.36361 21.0951 4.36361 10.7495 11.5151 7.20773C12.8788 6.5553 13.606 6.39996 15.4545 6.39996C17.3939 6.39996 18.0303 6.5553 19.7576 7.39414C20.8485 7.95336 21.9697 8.73006 22.2121 9.13394C23.4848 11.0912 23.5757 11.0912 25.4848 9.13394C26.4848 8.13977 27.2727 7.14559 27.2727 6.89705C27.2727 6.12035 24.4242 3.38637 22.4545 2.23685C19.3636 0.497049 15.9394 -0.031105 12.2727 0.745594Z" fill="#1FB724"/>
<path d="M38.6969 0.528149C38.5454 0.776693 38.0606 2.5165 37.1212 6.05824C36.9091 6.89708 36.5757 8.01553 36.4242 8.54368C36.0606 9.59999 35.1515 12.6136 34.3939 15.3786C34.1212 16.4039 33.6363 18.0815 33.3333 19.1068C33.0303 20.132 32.5454 21.8097 32.2727 22.8349C31.7878 24.5437 31.4242 25.8175 30.1818 29.8874L29.7272 31.3786H32.7272H35.6969L36.3333 29.2349C36.6969 28.0544 36.9697 26.8738 36.9697 26.5942C36.9697 26.1281 37.5151 26.0971 41.8787 26.1592L46.8181 26.2524L47.4242 28.8L48.0303 31.3786H51.0909H54.1515L53.1515 28.1786C52.2121 25.2272 50.0303 18.0505 48.303 12.2718C47.909 10.9048 47.1515 8.45048 46.6666 6.83494C46.1515 5.21941 45.5151 3.07572 45.2727 2.08155L44.7575 0.310673H41.7878C40.1515 0.310673 38.7575 0.403877 38.6969 0.528149ZM42.5151 10.4699C42.7878 11.6505 43.2424 13.3592 43.5151 14.2913C44.6666 18.2679 45.3636 21.1573 45.1818 21.2505C45.0909 21.3126 43.5151 21.3747 41.7272 21.3747L38.4242 21.4058L38.6363 20.567C38.7575 20.101 38.9697 19.2311 39.0909 18.6408C39.2121 18.0505 39.6969 16.1553 40.1515 14.4466C40.606 12.7379 41.1212 10.6874 41.2727 9.84853C41.4545 9.04077 41.6969 8.38834 41.7878 8.38834C41.9091 8.38834 42.2121 9.32038 42.5151 10.4699Z" fill="#1FB724"/>
<path d="M57.2727 3.26213V6.21359H60.0303C62.3636 6.21359 62.7576 6.15145 62.606 5.74757C62.5151 5.49903 62.5757 5.28155 62.6969 5.28155C62.8485 5.28155 63.0303 5.49903 63.1515 5.74757C63.2727 6.12038 63.9394 6.21359 66.4848 6.21359C69.5757 6.21359 69.6666 6.24466 70.9697 7.23883C74 9.56893 74.4848 13.6078 72.1212 16.7146C71 18.1437 69.5757 18.6097 66.3333 18.6408C64 18.6408 63.3636 18.734 63.2121 19.1068C63.1212 19.3553 62.9091 19.5728 62.7576 19.5728C62.5757 19.5728 62.5151 19.3553 62.606 19.1068C62.7576 18.7029 62.3636 18.6408 60.0303 18.6408H57.2727V25.0097V31.3786H60.1515H63.0303V27.9612V24.5437H65.5757H68.1212L69.8788 27.2466C70.8485 28.7689 71.7879 30.2602 71.9697 30.6019C72.2424 31.1612 72.6363 31.2233 75.6969 31.3165L79.1212 31.4097L78.0303 29.8252C77.4545 28.9864 76.9697 28.2097 76.9697 28.1165C76.9697 28.0233 76.4848 27.2466 75.9091 26.4078C75.3333 25.5689 74.8485 24.7922 74.8485 24.699C74.8485 24.6058 74.5454 24.1087 74.1818 23.6116L73.5454 22.7107L75.1212 21.2505C76.8485 19.6349 77.4545 18.7029 78.2424 16.1553C80.3939 9.32038 76.1212 1.95728 69.2424 0.652422C68.2727 0.466015 65.1818 0.310675 62.3636 0.310675H57.2727V3.26213Z" fill="#1FB724"/>
<path d="M62.6666 8.17087L61.2121 8.48155V12.4272V16.3728L63.6666 16.901C66.6363 17.5534 66.9394 17.3981 67.6969 14.5709C68.2727 12.5204 68.1515 10.8116 67.3333 9.00971C66.8485 8.01553 66.6969 7.92233 65.4545 7.89126C64.6969 7.86019 63.4545 7.98446 62.6666 8.17087Z" fill="#1FB724"/>
<path d="M71.2121 8.54368C71.606 8.97863 72.0302 9.32038 72.1818 9.32038C72.6363 9.32038 71.3939 7.79805 70.9393 7.76698C70.6363 7.76698 70.7272 8.01553 71.2121 8.54368Z" fill="#1FB724"/>
<path d="M71.2121 16.3107C70.8182 16.7456 70.5758 17.1495 70.6667 17.2427C70.7273 17.3359 71.1818 16.9631 71.6667 16.466C72.1515 15.9379 72.3939 15.534 72.2424 15.534C72.0606 15.534 71.6061 15.8757 71.2121 16.3107Z" fill="#1FB724"/>
</svg>
