<svg width="60" height="60" viewBox="0 0 60 60" fill="none" xmlns="http://www.w3.org/2000/svg">
<path d="M53.5714 3.75H6.42857C2.87946 3.75 0 6.26953 0 9.375V50.625C0 53.7305 2.87946 56.25 6.42857 56.25H53.5714C57.1205 56.25 60 53.7305 60 50.625V9.375C60 6.26953 57.1205 3.75 53.5714 3.75ZM32.1429 37.5H25.7143V43.125C25.7143 44.1562 24.75 45 23.5714 45H19.2857C18.1071 45 17.1429 44.1562 17.1429 43.125V16.875C17.1429 15.8438 18.1071 15 19.2857 15H32.1429C39.2277 15 45 20.0508 45 26.25C45 32.4492 39.2277 37.5 32.1429 37.5ZM32.1429 22.5H25.7143V30H32.1429C34.5 30 36.4286 28.3125 36.4286 26.25C36.4286 24.1875 34.5 22.5 32.1429 22.5Z" fill="#54ED39"/>
</svg>
