<svg width="75" height="60" viewBox="0 0 75 60" fill="none" xmlns="http://www.w3.org/2000/svg">
<g clip-path="url(#clip0_556_21)">
<path d="M2.08332 26.25H5.92447C7.0703 23.9062 8.73697 21.832 10.7943 20.0977L8.33333 11.25H12.5C16.3281 11.25 19.7135 12.832 22.0052 15.2695C22.9948 15.1406 23.9714 15 25 15H41.6667C51.7448 15 60.1432 21.4453 62.0833 30H67.7083C69.6354 30 71.1589 28.418 70.7682 26.625C70.4818 25.2891 69.0885 24.375 67.5781 24.375H67.4479C67.0182 24.375 66.6667 24.0586 66.6667 23.6719V21.3281C66.6667 20.9414 67.0182 20.625 67.4479 20.625C71.1589 20.625 74.4662 23.0156 74.9349 26.3203C75.5078 30.3281 72.0443 33.75 67.7083 33.75H62.5C62.5 39.8672 59.1927 45.2461 54.1667 48.668V58.125C54.1667 59.1562 53.2292 60 52.0833 60H43.75C42.6042 60 41.6667 59.1562 41.6667 58.125V52.5H25V58.125C25 59.1562 24.0625 60 22.9167 60H14.5833C13.4375 60 12.5 59.1562 12.5 58.125V48.668C10.9635 47.625 9.59635 46.3945 8.42448 45H2.08332C0.937492 45 -7.62939e-06 44.1562 -7.62939e-06 43.125V28.125C-7.62939e-06 27.0938 0.937492 26.25 2.08332 26.25ZM18.75 33.75C19.8958 33.75 20.8333 32.9062 20.8333 31.875C20.8333 30.8438 19.8958 30 18.75 30C17.6042 30 16.6667 30.8438 16.6667 31.875C16.6667 32.9062 17.6042 33.75 18.75 33.75ZM41.6667 11.25H25C24.2969 11.25 23.6068 11.2969 22.9297 11.3438C22.9297 11.3086 22.9167 11.2852 22.9167 11.25C22.9167 5.03906 28.5156 0 35.4167 0C42.3177 0 47.9167 5.03906 47.9167 11.25C47.9167 11.4961 47.8516 11.7305 47.8385 11.9766C45.8594 11.5195 43.8021 11.25 41.6667 11.25Z" fill="#54ED39"/>
</g>
<defs>
<clipPath id="clip0_556_21">
<rect width="75" height="60" fill="white" transform="matrix(-1 0 0 1 75 0)"/>
</clipPath>
</defs>
</svg>
